<?xml version="1.0" standalone="no"?>
<!DOCTYPE svg PUBLIC "-//W3C//DTD SVG 20010904//EN"
 "http://www.w3.org/TR/2001/REC-SVG-20010904/DTD/svg10.dtd">
<svg version="1.0" xmlns="http://www.w3.org/2000/svg"
 width="calc(1rem + 3vmin)" height="calc(1rem + 3vmin)" viewBox="0 0 512.000000 512.000000"
 preserveAspectRatio="xMidYMid meet">

<g transform="translate(0.000000,512.000000) scale(0.100000,-0.100000)"
fill=current stroke="none">
<path d="M2020 4889 c-533 -60 -1041 -331 -1381 -738 -328 -391 -499 -859
-499 -1366 0 -570 217 -1092 620 -1495 351 -351 782 -556 1282 -610 515 -55
1084 106 1493 424 l70 54 450 -448 c426 -423 453 -449 510 -470 256 -94 495
158 385 407 -17 38 -111 138 -475 503 -250 250 -455 459 -455 463 0 4 23 45
50 91 372 618 396 1397 64 2046 -170 334 -447 634 -766 832 -190 118 -444 222
-654 268 -209 46 -493 62 -694 39z m565 -479 c149 -32 265 -73 410 -145 170
-85 294 -174 430 -310 133 -133 223 -258 309 -425 206 -405 239 -840 96 -1271
-161 -486 -545 -872 -1036 -1042 -191 -66 -292 -82 -534 -82 -187 0 -229 3
-324 23 -317 68 -593 213 -819 431 -288 277 -464 633 -506 1023 -65 593 206
1185 699 1533 159 112 364 205 554 250 162 40 208 44 421 40 158 -2 221 -7
300 -25z"/>
<path d="M2130 3922 c-210 -55 -360 -249 -360 -466 1 -268 219 -486 485 -486
302 1 533 285 471 578 -58 276 -326 444 -596 374z"/>
<path d="M1835 2918 c-216 -110 -410 -363 -511 -665 -48 -141 -52 -195 -22
-253 43 -84 127 -121 362 -159 187 -31 330 -41 596 -41 344 0 586 26 766 81
192 59 224 121 170 324 -88 323 -291 597 -533 719 l-53 26 -44 -34 c-69 -53
-153 -77 -281 -83 -156 -7 -266 22 -360 93 l-30 23 -60 -31z"/>
</g>
</svg>
